<svg xmlns="http://www.w3.org/2000/svg" version="1.1" xmlns:xlink="http://www.w3.org/1999/xlink" xmlns:svgjs="http://svgjs.dev/svgjs" width="1000" height="227" viewBox="0 0 1000 227"><g transform="matrix(1,0,0,1,-0.6060609247458046,-0.45793870421984195)"><svg viewBox="0 0 396 90" data-background-color="#444444" preserveAspectRatio="xMidYMid meet" height="227" width="1000" xmlns="http://www.w3.org/2000/svg" xmlns:xlink="http://www.w3.org/1999/xlink"><g id="tight-bounds" transform="matrix(1,0,0,1,0.24000012619933386,0.18156160079200845)"><svg viewBox="0 0 395.52 89.63687679841601" height="89.63687679841601" width="395.52"><g><svg viewBox="0 0 568.3305210951517 128.80100348954713" height="89.63687679841601" width="395.52"><g transform="matrix(1,0,0,1,0,17.801006994575623)"><svg viewBox="0 0 395.52000000000004 93.19898950039588" height="93.19898950039588" width="395.52000000000004"><g id="textblocktransform"><svg viewBox="0 0 395.52000000000004 93.19898950039588" height="93.19898950039588" width="395.52000000000004" id="textblock"><g><svg viewBox="0 0 395.52000000000004 93.19898950039588" height="93.19898950039588" width="395.52000000000004"><g transform="matrix(1,0,0,1,0,0)"><svg width="395.52000000000004" viewBox="3.9488236904144287 -31.899999618530273 174.36117553710938 41.099998474121094" height="93.19898950039588" data-palette-color="#ffffff"><path d="M13.45 0L5.86 0Q4.66 0 4.02-1.15L4.02-1.15Q3.91-1.49 3.97-1.9L3.97-1.9 3.97-29.43Q3.97-30.57 5.06-31.21L5.06-31.21Q5.4-31.38 5.86-31.38L5.86-31.38 13.33-31.38Q25.69-31.38 29.08-22.41L29.08-22.41Q30.17-19.48 30.11-15.63L30.11-15.63Q30.11-7.93 25.75-3.97L25.75-3.97Q21.38 0 13.45 0L13.45 0ZM7.82-28.28L7.82-2.99 13.91-2.99Q23.1-2.99 25.29-10.46L25.29-10.46Q25.98-12.76 25.98-15.8 25.98-18.85 25.06-21.26 24.14-23.68 22.41-25.29L22.41-25.29Q19.14-28.28 12.76-28.28L12.76-28.28 7.82-28.28ZM40.34-29.43L40.34-29.43Q40.34-28.51 39.71-27.93 39.08-27.36 37.93-27.36 36.78-27.36 36.15-27.93 35.51-28.51 35.51-29.43L35.51-29.43Q35.51-30.23 36.15-30.8 36.78-31.38 37.96-31.38 39.14-31.38 39.74-30.8 40.34-30.23 40.34-29.43ZM36.2-1.72L36.2-20Q36.2-20.86 36.78-21.35 37.35-21.84 37.81-21.84 38.27-21.84 38.56-21.7 38.85-21.55 39.14-21.26L39.14-21.26Q39.77-20.86 39.77-20L39.77-20 39.77-1.72Q39.77-0.86 39.19-0.43 38.62 0 37.93 0L37.93 0Q37.24 0 36.72-0.43 36.2-0.86 36.2-1.72L36.2-1.72ZM55.28-19.48L55.28-19.48Q48.85-19.48 48.85-10.92L48.85-10.92Q48.85-6.9 50.86-4.6L50.86-4.6Q52.58-2.59 55.34-2.53L55.34-2.53Q58.16-2.53 60.11-4.66L60.11-4.66Q62.18-6.9 62.18-10.8L62.18-10.8Q62.18-16.67 58.5-18.74L58.5-18.74Q57.24-19.48 55.28-19.48ZM54.36-22.24L54.36-22.24Q60-22.24 62.29-17.93L62.29-17.93 62.29-20.34Q62.41-21.03 62.87-21.44 63.33-21.84 63.96-21.84 64.59-21.84 65.11-21.38 65.63-20.92 65.63-20.17L65.63-20.17 65.63 0.46Q65.63 4.94 62.75 7.13L62.75 7.13Q60.17 9.2 55.28 9.2L55.28 9.2Q50.91 9.2 48.73 7.7L48.73 7.7Q47.01 6.44 47.01 5.63L47.01 5.63Q47.01 5.06 47.38 4.68 47.75 4.31 48.24 4.31 48.73 4.31 49.19 4.63 49.65 4.94 50.28 5.23 50.91 5.52 51.55 5.75L51.55 5.75Q53.21 6.32 54.97 6.32 56.72 6.32 58.01 6.03 59.31 5.75 60.22 5.06L60.22 5.06Q62.18 3.79 62.18 0.69L62.18 0.69 62.18-4.31Q60.51-1.15 56.89-0.23L56.89-0.23Q55.74 0 54.65 0L54.65 0Q49.88 0 47.35-3.28L47.35-3.28Q45-6.21 45-10.8L45-10.8Q45-15.69 47.35-18.79L47.35-18.79Q49.82-22.24 54.36-22.24ZM91.37-11.55L91.37-11.55Q91.37-10.34 89.99-10.23L89.99-10.23 74.25-10.23Q74.48-4.37 78.84-2.64L78.84-2.64Q80.05-2.24 81.6-2.24L81.6-2.24Q84.82-2.24 88.15-4.6L88.15-4.6Q89.19-5.17 89.88-4.48L89.88-4.48Q90.22-4.14 90.11-3.79L90.11-3.79Q90.11-2.99 89.71-2.64L89.71-2.64Q86.54 0.52 81.37 0.46L81.37 0.46Q76.66 0.46 73.79-2.59L73.79-2.59Q70.57-5.75 70.57-10.92L70.57-10.92Q70.57-15.69 73.21-18.79L73.21-18.79Q75.97-22.24 81.03-22.24L81.03-22.24Q86.08-22.24 88.73-19.2L88.73-19.2Q91.26-16.44 91.37-11.55ZM74.36-12.59L87.98-12.59Q87.81-15.69 85.97-17.7L85.97-17.7Q84.25-19.54 81.03-19.54L81.03-19.54Q78.27-19.54 76.31-17.47L76.31-17.47Q74.53-15.4 74.36-12.59L74.36-12.59ZM104.53-19.54L104.53-19.54Q99.53-19.54 99.65-16.38L99.65-16.38Q99.65-14.37 102.52-13.62L102.52-13.62Q103.5-13.33 104.62-13.1 105.74-12.87 107.06-12.56 108.38-12.24 109.76-11.72L109.76-11.72Q111.71-11.15 112.78-9.8 113.84-8.45 113.84-6.55L113.84-6.55Q113.84-3.1 110.91-1.21L110.91-1.21Q108.27 0.52 104.24 0.46L104.24 0.46Q101.25 0.46 98.38-0.57L98.38-0.57Q97.23-1.03 96.54-1.67 95.85-2.3 95.85-2.87 95.85-3.45 96.23-3.79 96.6-4.14 97.12-4.14 97.63-4.14 98.29-3.85 98.96-3.56 99.99-3.22L99.99-3.22Q102.63-2.24 104.24-2.24 105.85-2.24 106.83-2.44 107.81-2.64 108.61-3.1L108.61-3.1Q110.33-4.25 110.33-6.09L110.33-6.09Q110.33-7.41 109.5-8.13 108.67-8.85 107.38-9.25 106.08-9.66 104.82-9.94 103.55-10.23 102.29-10.52 101.02-10.8 99.88-11.21 98.73-11.61 97.92-12.3L97.92-12.3Q95.97-13.68 95.97-16.21L95.97-16.21Q95.97-19.43 98.67-20.86L98.67-20.86Q100.91-22.24 104.59-22.24L104.59-22.24Q108.32-22.24 110.56-21.15L110.56-21.15Q112.46-20.17 112.46-18.97L112.46-18.97Q112.46-18.51 112.09-18.22 111.71-17.93 111.25-17.93L111.25-17.93Q110.39-17.93 109.96-18.22 109.53-18.51 109.01-18.79 108.5-19.08 107.81-19.2L107.81-19.2Q106.54-19.54 104.53-19.54ZM130.73-1.26L130.73-1.26Q130.73 0.46 126.65 0.46L126.65 0.46Q123.61 0.46 122.34-1.21L122.34-1.21Q120.96-2.99 120.85-7.07L120.85-7.07 120.85-19.14 118.32-19.14Q117.63-19.14 117.23-19.57 116.83-20 116.83-20.46L116.83-20.46Q116.83-20.92 117.17-21.38 117.52-21.84 118.32-21.84L118.32-21.84 121.08-21.84 121.31-28.05Q121.42-28.74 121.94-29.11 122.46-29.48 123.03-29.48 123.61-29.48 124.01-29.14 124.41-28.79 124.41-28.05L124.41-28.05 124.41-21.84 128.38-21.84Q129.07-21.84 129.44-21.38 129.82-20.92 129.82-20.46L129.82-20.46Q129.82-19.89 129.44-19.51 129.07-19.14 128.38-19.14L128.38-19.14 124.41-19.14 124.41-8.97Q124.41-4.71 124.7-3.82 124.99-2.93 125.62-2.59 126.25-2.24 127.17-2.24L127.17-2.24 129.41-2.41Q130.04-2.41 130.39-2.01 130.73-1.61 130.73-1.26ZM138.78-29.43L138.78-29.43Q138.78-28.51 138.15-27.93 137.51-27.36 136.36-27.36 135.21-27.36 134.58-27.93 133.95-28.51 133.95-29.43L133.95-29.43Q133.95-30.23 134.58-30.8 135.21-31.38 136.39-31.38 137.57-31.38 138.17-30.8 138.78-30.23 138.78-29.43ZM134.64-1.72L134.64-20Q134.64-20.86 135.21-21.35 135.79-21.84 136.25-21.84 136.71-21.84 137-21.7 137.28-21.55 137.57-21.26L137.57-21.26Q138.2-20.86 138.2-20L138.2-20 138.2-1.72Q138.2-0.86 137.63-0.43 137.05 0 136.36 0L136.36 0Q135.67 0 135.16-0.43 134.64-0.86 134.64-1.72L134.64-1.72ZM154.12-19.2L150.38-19.2 150.38-1.72Q150.38-0.86 149.84-0.43 149.29 0 148.78 0 148.26 0 147.94-0.09 147.63-0.17 147.4-0.46L147.4-0.46Q146.82-0.86 146.88-1.72L146.88-1.72 146.88-19.2 143.83-19.2Q143.14-19.2 142.8-19.6 142.45-20 142.45-20.52L142.45-20.52Q142.45-20.92 142.8-21.38 143.14-21.84 143.83-21.84L143.83-21.84 146.88-21.84 146.88-24.25Q146.88-30.17 150.04-31.49L150.04-31.49Q151.07-31.9 152.11-31.9L152.11-31.9Q153.95-31.9 155.84-31.26L155.84-31.26Q156.71-30.92 156.71-30.11L156.71-30.11Q156.71-29.66 156.42-29.22 156.13-28.79 155.64-28.79 155.15-28.79 154.9-28.82 154.64-28.85 154.41-28.97L154.41-28.97Q153.78-29.08 153-29.08 152.22-29.08 151.71-28.76 151.19-28.45 150.84-27.76L150.84-27.76Q150.38-26.67 150.38-22.53L150.38-22.53 150.38-21.84 154.12-21.84Q154.81-21.84 155.18-21.44 155.56-21.03 155.56-20.52 155.56-20 155.18-19.6 154.81-19.2 154.12-19.2L154.12-19.2ZM163.83 6.32L166.42-0.17 157.97-19.48Q157.8-19.83 157.8-20.17 157.8-20.52 157.97-20.83 158.14-21.15 158.37-21.26L158.37-21.26Q159.06-21.72 159.69-21.84L159.69-21.84Q160.9-21.84 161.42-20.69L161.42-20.69 168.26-4.14 175.04-20.69Q175.55-21.84 176.39-21.84 177.22-21.84 177.77-21.35 178.31-20.86 178.31-20.34 178.31-19.83 178.14-19.48L178.14-19.48 167.11 7.36Q166.59 8.51 165.5 8.51L165.5 8.51Q164.81 8.51 164.35 8.16L164.35 8.16Q163.66 7.59 163.66 7.07 163.66 6.55 163.83 6.32L163.83 6.32Z" opacity="1" transform="matrix(1,0,0,1,0,0)" fill="#ffffff" class="undefined-text-0" data-fill-palette-color="primary" id="text-0"></path></svg></g></svg></g></svg></g></svg></g><g transform="matrix(1,0,0,1,417.5220446452955,0)"><svg viewBox="0 0 150.8084764498562 128.80100348954713" height="128.80100348954713" width="150.8084764498562"><g><svg version="1.0" xmlns="http://www.w3.org/2000/svg" xmlns:xlink="http://www.w3.org/1999/xlink" x="0" y="0" viewBox="0 0 100 85.4070053100586" enable-background="new 0 0 100 85.407" xml:space="preserve" width="150.8084764498562" height="128.80100348954713" class="icon-icon-0" data-fill-palette-color="accent" id="icon-0"><path d="M100 42.672c0 4.26-1.67 8.128-4.385 11.008-0.466 6.078-4.317 11.208-9.685 13.521v0.057c-6.555 3.817-10.474 10.333-11.667 18.149h-6.061V67.275c0.04-5.652 1.818-9.271 5.544-11.504 1.363-0.784 2.602-1.681 3.658-2.675 2.766 0.994 5.214 2.942 6.771 5.714 0.324 0.545 0.903 0.852 1.477 0.852 0.278 0 0.568-0.068 0.829-0.222 0.83-0.455 1.125-1.488 0.659-2.306h-0.011c-1.744-3.102-4.396-5.391-7.407-6.754 1.545-2.375 2.403-5.203 2.363-8.6 0-0.017 0.023-0.034 0.023-0.057 0-1.534-0.227-3.027-0.636-4.431 3.539-0.676 6.657-2.471 8.952-5 0.636-0.698 0.59-1.772-0.114-2.397-0.699-0.63-1.755-0.574-2.38 0.108-2 2.176-4.698 3.664-7.765 4.073-2.465-4.567-7.049-7.81-12.422-8.401 0.358-2.897 1.664-5.481 3.629-7.447 0.648-0.659 0.648-1.734 0-2.387-0.659-0.665-1.75-0.665-2.408 0-2.516 2.518-4.198 5.88-4.618 9.624-6.311-0.795-11.173-6.152-11.184-12.674 0-0.926-0.767-1.698-1.676-1.698-0.96 0-1.71 0.772-1.71 1.698 0 1.102 0.108 2.153 0.318 3.187-2.392 2.069-5.368 3.114-8.35 3.114-1.471 0-2.948-0.261-4.339-0.767 0 0-0.023-0.006-0.04-0.011-1.715-0.619-3.289-1.604-4.652-2.967-0.653-0.659-1.732-0.659-2.397 0-0.665 0.659-0.665 1.729 0 2.393 1.397 1.392 2.971 2.471 4.646 3.249-0.335 4.22-2.789 7.85-6.22 9.889-1.982-3.011-4.964-5.396-8.628-6.561-0.915-0.284-1.863 0.21-2.153 1.102-0.25 0.892 0.205 1.841 1.108 2.119 2.721 0.863 4.908 2.539 6.481 4.675-1.056 0.284-2.141 0.437-3.294 0.437 0 0 0 0-0.018 0H22.05c-4.351 0-8.35 1.733-11.258 4.568-0.688 0.653-0.704 1.727-0.028 2.392 0.323 0.341 0.767 0.511 1.227 0.511 0.387 0 0.812-0.159 1.142-0.477 2.307-2.25 5.453-3.607 8.918-3.607h0.182 0.005 0.018c8.156 0 14.933-6.074 15.995-13.946 1.159 0.25 2.317 0.386 3.493 0.386 3.312 0 6.652-1.028 9.463-3.062 1.028 2.346 2.653 4.396 4.624 5.987-2.011 2.477-3.192 5.419-3.504 8.429-0.847-0.136-1.738-0.21-2.63-0.21-2.556 0-5.152 0.607-7.566 1.898-0.829 0.438-1.142 1.465-0.704 2.295 0.307 0.562 0.903 0.892 1.511 0.892 0.278 0 0.528-0.062 0.772-0.205 1.943-1.017 3.977-1.5 5.987-1.5 0.897 0 1.783 0.097 2.63 0.278 0.369 3.431 1.852 6.788 4.402 9.458 0.341 0.353 0.778 0.523 1.216 0.523 0.415 0 0.846-0.154 1.182-0.466 0.693-0.653 0.71-1.716 0.051-2.392h-0.011c-2.267-2.397-3.465-5.441-3.544-8.52 0-0.046 0.011-0.08 0-0.131 0-0.062 0-0.125 0-0.188 0-2.989 1.034-5.943 3.079-8.317 2.153 1.074 4.606 1.699 7.203 1.699 0 0 0.011 0.005 0.028 0.005 0 0 0.011 0 0.028 0 7.032 0.023 12.724 5.705 12.752 12.736-1.334-0.352-2.709-0.534-4.118-0.534-2.016 0-4.061 0.369-6.032 1.182-0.875 0.358-1.29 1.34-0.937 2.204 0.357 0.863 1.329 1.284 2.198 0.932 1.579-0.63 3.187-0.937 4.771-0.937 1.278 0 2.545 0.193 3.732 0.562-0.415 1.897-1.227 3.419-2.488 4.771-0.097 0.085-0.188 0.182-0.261 0.295-0.966 0.949-2.125 1.823-3.556 2.692-4.902 2.863-7.254 8.055-7.203 14.418v18.132h-5.783V68.161c0-6.333-3.97-12.339-8.969-14.475-2.386-0.926-4.874-2.477-6.686-4.505-2.584 1.755-5.686 2.789-9.021 2.789-3.346 0-6.447-1.017-9.014-2.76-2.556 1.681-5.641 2.664-8.94 2.664C7.333 51.875 0 44.524 0 35.464c0-6.772 4.095-12.583 9.958-15.083 1.585-7.227 7.986-12.634 15.688-12.634 0.409 0 0.784 0.034 1.165 0.057 2.903-4.243 7.782-7.027 13.309-7.027 2.738 0 5.306 0.682 7.561 1.897C50.225 0.982 53.269 0 56.546 0c4.209 0 8.043 1.642 10.917 4.306 1.204-0.29 2.448-0.46 3.749-0.46 6.504 0 12.127 3.914 14.638 9.52 6.601 2 11.406 8.124 11.406 15.372 0 1.454-0.193 2.857-0.551 4.192C98.762 35.635 100 39.009 100 42.672z" fill="#00d1cd" data-fill-palette-color="accent"></path></svg></g></svg></g></svg></g><defs></defs></svg><rect width="395.52" height="89.63687679841601" fill="none" stroke="none" visibility="hidden"></rect></g></svg></g></svg>